<svg width="20" height="20" viewBox="0 0 20 20" fill="none" xmlns="http://www.w3.org/2000/svg">
<path d="M10 0.833344C8.91333 0.833344 7.99716 1.53084 7.65299 2.50001H4.16667C3.24583 2.50001 2.5 3.24584 2.5 4.16668V15.8333C2.5 16.7542 3.24583 17.5 4.16667 17.5H15.8333C16.7542 17.5 17.5 16.7542 17.5 15.8333V4.16668C17.5 3.24584 16.7542 2.50001 15.8333 2.50001H12.347C12.0028 1.53084 11.0867 0.833344 10 0.833344ZM10 2.50001C10.46 2.50001 10.8333 2.87334 10.8333 3.33334C10.8333 3.79334 10.46 4.16668 10 4.16668H15.8333V15.8333H4.16667V4.16668H10C9.54 4.16668 9.16667 3.79334 9.16667 3.33334C9.16667 2.87334 9.54 2.50001 10 2.50001ZM5.83333 5.83334V7.50001H14.1667V5.83334H5.83333ZM5.83333 9.16668V10.8333H12.5V9.16668H5.83333ZM5.83333 12.5V14.1667H14.1667V12.5H5.83333Z" fill="#FCFCFC"/>
</svg>
