<svg width="20" height="20" viewBox="0 0 20 20" fill="none" xmlns="http://www.w3.org/2000/svg">
<path d="M7.49999 2.5V3.33333H3.33332C2.41249 3.33333 1.66666 4.07917 1.66666 5V15C1.66666 15.9192 2.41416 16.6667 3.33332 16.6667H16.6667C17.5858 16.6667 18.3333 15.9192 18.3333 15V5C18.3333 4.07917 17.5875 3.33333 16.6667 3.33333H12.5V2.5H7.49999ZM3.33332 5H16.6667V10.8333H15C15 10.6123 14.9122 10.4004 14.7559 10.2441C14.5996 10.0878 14.3877 10 14.1667 10C13.9456 10 13.7337 10.0878 13.5774 10.2441C13.4211 10.4004 13.3333 10.6123 13.3333 10.8333H6.66666C6.66666 10.6123 6.57886 10.4004 6.42258 10.2441C6.2663 10.0878 6.05434 10 5.83332 10C5.61231 10 5.40035 10.0878 5.24407 10.2441C5.08779 10.4004 4.99999 10.6123 4.99999 10.8333H3.33332V5ZM3.33332 12.5H16.6667V15H3.33332V12.5Z" fill="#FCFCFC"/>
</svg>
