<svg width="26" height="22" viewBox="0 0 26 22" fill="none" xmlns="http://www.w3.org/2000/svg">
<path d="M12 0C10.895 0 10 0.895 10 2H2C0.895 2 0 2.895 0 4V13C0 14.105 0.895 15 2 15H24C25.105 15 26 14.105 26 13V4C26 2.895 25.105 2 24 2H16C16 0.895 15.105 0 14 0H12ZM5 10C5.552 10 6 10.448 6 11V12C6 12.552 5.552 13 5 13C4.448 13 4 12.552 4 12V11C4 10.448 4.448 10 5 10ZM21 10C21.552 10 22 10.448 22 11V12C22 12.552 21.552 13 21 13C20.448 13 20 12.552 20 12V11C20 10.448 20.448 10 21 10ZM0 16.4434V20C0 21.105 0.895 22 2 22H24C25.105 22 26 21.105 26 20V16.4434C25.409 16.7874 24.732 17 24 17H2C1.268 17 0.591 16.7874 0 16.4434Z" fill="black"/>
</svg>
