<svg width="26" height="30" viewBox="0 0 26 30" fill="none" xmlns="http://www.w3.org/2000/svg">
<path d="M13 0C7.48731 0 3 4.48731 3 10C3 18.8208 12.1431 29.3408 12.5312 29.7852C12.6509 29.9219 12.8193 30 13 30C13.1929 29.9878 13.3491 29.9219 13.4688 29.7852C13.8569 29.3335 23 18.6328 23 10C23 4.48731 18.5127 0 13 0ZM13 6.875C15.0703 6.875 16.75 8.55469 16.75 10.625C16.75 12.6953 15.0703 14.375 13 14.375C10.9297 14.375 9.25 12.6953 9.25 10.625C9.25 8.55469 10.9297 6.875 13 6.875Z" fill="#191919"/>
</svg>
