<svg width="161" height="54" viewBox="0 0 161 54" fill="none" xmlns="http://www.w3.org/2000/svg">
<path d="M78.14 37V35.08C76.76 36.76 75.41 37.39 73.22 37.39C68.9 37.39 66.68 34.63 66.68 29.35V20.44H70.07V28.81C70.07 32.59 71.21 34.27 73.79 34.27C76.67 34.27 77.96 32.5 77.96 28.48V20.44H81.35V37H78.14ZM84.1569 37V20.44H87.3669V22.21C88.7769 20.71 90.2169 20.05 92.2269 20.05C96.6969 20.05 98.8269 22.69 98.8269 28.18V37H95.4369V28.72C95.4369 24.88 94.2369 23.17 91.6269 23.17C88.8669 23.17 87.5469 24.97 87.5469 28.78V37H84.1569ZM101.604 37V20.44H104.994V37H101.604ZM101.604 18.58V14.83H104.994V18.58H101.604ZM107.801 37V20.44H110.981V22.3C112.001 20.65 112.961 20.11 115.121 20.05V23.35C112.511 23.44 111.191 24.88 111.191 27.64V37H107.801ZM116.81 37V20.44H120.2V37H116.81ZM116.81 18.58V14.83H120.2V18.58H116.81ZM122.287 28.72C122.287 23.77 125.977 19.93 130.717 19.93C132.967 19.93 135.007 20.77 136.327 22.3V14.83H139.747V37H136.567V34.57C134.917 36.55 133.237 37.39 130.807 37.39C125.977 37.39 122.287 33.64 122.287 28.72ZM125.707 28.63C125.707 31.78 128.137 34.27 131.227 34.27C134.197 34.27 136.567 31.78 136.567 28.66C136.567 25.45 134.197 23.05 131.017 23.05C128.047 23.05 125.707 25.48 125.707 28.63ZM154.983 31.93H158.673C157.593 35.14 154.353 37.39 150.723 37.39C145.713 37.39 141.843 33.61 141.843 28.75C141.843 23.89 145.653 20.05 150.513 20.05C155.373 20.05 159.123 23.86 159.123 28.81C159.123 29.35 159.063 29.68 158.973 30.16H145.443C145.833 32.59 147.933 34.27 150.633 34.27C152.583 34.27 153.993 33.46 154.983 31.93ZM145.383 27.13H155.733C155.133 24.64 153.243 23.17 150.543 23.17C147.903 23.17 146.013 24.64 145.383 27.13Z" fill="#191919"/>
<g clip-path="url(#clip0_0_1633)">
<path fill-rule="evenodd" clip-rule="evenodd" d="M41.2793 25.4131L19.8909 14.5151C16.0211 12.5434 11.2418 14.0961 9.27005 17.9662C7.29822 21.8361 8.85108 26.6152 12.721 28.587L34.1094 39.4848C37.979 41.4566 42.7584 39.9039 44.7302 36.0338C46.7019 32.164 45.1491 27.3848 41.2793 25.4131ZM40.2851 27.3644L18.8967 16.4664C16.1 15.0414 12.6462 16.1638 11.2212 18.9604C9.79627 21.7571 10.9185 25.2109 13.7152 26.6359L35.1035 37.5337C37.9002 38.9587 41.354 37.8365 42.779 35.0398C44.204 32.2432 43.0817 28.7894 40.2851 27.3644Z" fill="black"/>
<path fill-rule="evenodd" clip-rule="evenodd" d="M24.5882 37.0914L19.8909 39.4848C16.0212 41.4565 11.2419 39.9039 9.27006 36.0338C8.07295 33.6843 8.17536 30.9997 9.30639 28.8116C9.83557 29.3234 10.4275 29.7826 11.0782 30.1769C10.4242 31.6874 10.4202 33.4674 11.2214 35.0398C12.6463 37.8365 16.1002 38.9586 18.8968 37.5337L22.1765 35.8627L24.5882 37.0914Z" fill="black"/>
<path fill-rule="evenodd" clip-rule="evenodd" d="M39.5553 29.4654L31.8235 33.4049L29.4118 32.1761L37.1583 28.229L39.291 29.3156C39.3821 29.362 39.4702 29.4122 39.5554 29.4654H39.5553Z" fill="black"/>
<path fill-rule="evenodd" clip-rule="evenodd" d="M29.4118 16.9085L34.1094 14.515C37.9792 12.5433 42.7585 14.096 44.7302 17.966C45.9274 20.3157 45.825 23.0004 44.6939 25.1885C44.1648 24.6768 43.5727 24.2174 42.922 23.8232C43.5761 22.3128 43.5802 20.5327 42.779 18.9602C41.354 16.1636 37.9001 15.0413 35.1035 16.4662L31.8236 18.1374L29.4118 16.9085Z" fill="black"/>
<path fill-rule="evenodd" clip-rule="evenodd" d="M14.4447 24.5346L22.1764 20.5951L24.5882 21.824L16.8417 25.7711L14.7093 24.6846C14.6181 24.6382 14.53 24.5879 14.4446 24.5346H14.4447Z" fill="black"/>
<path fill-rule="evenodd" clip-rule="evenodd" d="M34.3206 41.9544C33.1453 44.8462 30.3012 46.8989 27.0002 46.8989C23.6992 46.8989 20.8549 44.8461 19.6798 41.9543C20.0874 41.8096 20.49 41.6373 20.8852 41.436L21.6706 41.0358C22.4943 43.1781 24.577 44.7091 27.0003 44.7091C29.4236 44.7091 31.5063 43.1783 32.33 41.036L33.1151 41.4361C33.5104 41.6374 33.913 41.8098 34.3206 41.9544Z" fill="black"/>
<path fill-rule="evenodd" clip-rule="evenodd" d="M19.6797 12.0456C20.855 9.15369 23.6993 7.10107 27.0003 7.10107C30.3014 7.10107 33.1456 9.1538 34.3209 12.0455C33.9133 12.1901 33.5106 12.3625 33.1154 12.5638L32.3301 12.9639C31.5063 10.8217 29.4236 9.2909 27.0004 9.2909C24.577 9.2909 22.4942 10.8218 21.6705 12.9641L20.8851 12.5639C20.4899 12.3626 20.0872 12.1901 19.6797 12.0456Z" fill="black"/>
<path fill-rule="evenodd" clip-rule="evenodd" d="M0.00012207 27.0001C0.00012207 12.0884 12.0884 0 27.0002 0C41.9118 0 54.0002 12.0883 54.0002 27.0001C54.0002 41.9117 41.912 54.0001 27.0002 54.0001C12.0885 54.0001 0.00012207 41.9118 0.00012207 27.0001ZM2.18995 27.0001C2.18995 40.703 13.2971 51.8102 27.0001 51.8102C40.703 51.8102 51.8102 40.703 51.8102 27.0001C51.8102 13.2971 40.703 2.18994 27.0001 2.18994C13.2971 2.18994 2.18995 13.2971 2.18995 27.0001Z" fill="black"/>
</g>
<defs>
<clipPath id="clip0_0_1633">
<rect width="54" height="54" fill="white"/>
</clipPath>
</defs>
</svg>
