<svg width="20" height="21" viewBox="0 0 20 21" fill="none" xmlns="http://www.w3.org/2000/svg">
<path d="M10 2.1748C6.78668 2.1748 4.17319 4.78992 4.17319 8.00325C4.17319 11.7391 9.14544 17.8076 9.35711 18.0635L10 18.8431L10.6429 18.0635C10.8546 17.8068 15.8268 11.7391 15.8268 8.00325C15.8268 4.78909 13.2133 2.1748 10 2.1748ZM10 3.84147C12.2942 3.84147 14.1602 5.70909 14.1602 8.00325C14.1602 10.2574 11.565 14.1343 10 16.1885C8.43501 14.136 5.83985 10.2608 5.83985 8.00325C5.83985 5.70909 7.70584 3.84147 10 3.84147ZM10 5.91667C8.84918 5.91667 7.91668 6.84917 7.91668 8C7.91668 9.15083 8.84918 10.0833 10 10.0833C11.1508 10.0833 12.0833 9.15083 12.0833 8C12.0833 6.84917 11.1508 5.91667 10 5.91667Z" fill="#FCFCFC"/>
</svg>
