<svg width="22" height="20" viewBox="0 0 22 20" fill="none" xmlns="http://www.w3.org/2000/svg">
<path d="M13.1072 0.166626C12.6144 0.167016 12.1304 0.297018 11.7037 0.543586C11.277 0.790154 10.9227 1.14461 10.6763 1.57139H1.8691C1.68296 1.56875 1.49814 1.60315 1.3254 1.67256C1.15266 1.74197 0.995438 1.84503 0.862871 1.97573C0.730304 2.10644 0.625037 2.26219 0.553186 2.43393C0.481336 2.60567 0.444336 2.78998 0.444336 2.97615C0.444336 3.16231 0.481336 3.34663 0.553186 3.51837C0.625037 3.69011 0.730304 3.84586 0.862871 3.97656C0.995438 4.10727 1.15266 4.21032 1.3254 4.27974C1.49814 4.34915 1.68296 4.38354 1.8691 4.38091H10.679C10.9252 4.80728 11.2791 5.16148 11.7053 5.40803C12.1314 5.65457 12.6149 5.7848 13.1072 5.78567C13.6 5.78528 14.084 5.65528 14.5107 5.40871C14.9374 5.16214 15.2917 4.80769 15.5381 4.38091H20.131C20.3172 4.38354 20.502 4.34915 20.6747 4.27974C20.8475 4.21032 21.0047 4.10727 21.1372 3.97656C21.2698 3.84586 21.3751 3.69011 21.4469 3.51837C21.5188 3.34663 21.5558 3.16231 21.5558 2.97615C21.5558 2.78998 21.5188 2.60567 21.4469 2.43393C21.3751 2.26219 21.2698 2.10644 21.1372 1.97573C21.0047 1.84503 20.8475 1.74197 20.6747 1.67256C20.502 1.60315 20.3172 1.56875 20.131 1.57139H15.5353C15.2892 1.14501 14.9353 0.790813 14.5091 0.544269C14.083 0.297726 13.5995 0.167497 13.1072 0.166626ZM6.08339 7.19043C5.59059 7.19082 5.10656 7.32083 4.67989 7.56739C4.25321 7.81396 3.89889 8.16842 3.65249 8.59519H1.8691C1.68296 8.59256 1.49814 8.62695 1.3254 8.69637C1.15266 8.76578 0.995438 8.86884 0.862871 8.99954C0.730304 9.13025 0.625037 9.286 0.553186 9.45774C0.481336 9.62948 0.444336 9.81379 0.444336 9.99996C0.444336 10.1861 0.481336 10.3704 0.553186 10.5422C0.625037 10.7139 0.730304 10.8697 0.862871 11.0004C0.995438 11.1311 1.15266 11.2341 1.3254 11.3035C1.49814 11.373 1.68296 11.4074 1.8691 11.4047H3.65524C3.9014 11.8311 4.25529 12.1853 4.68144 12.4318C5.1076 12.6784 5.59106 12.8086 6.08339 12.8095C6.57619 12.8091 7.06021 12.6791 7.48689 12.4325C7.91357 12.186 8.26789 11.8315 8.51429 11.4047H20.131C20.3172 11.4074 20.502 11.373 20.6747 11.3035C20.8475 11.2341 21.0047 11.1311 21.1372 11.0004C21.2698 10.8697 21.3751 10.7139 21.4469 10.5422C21.5188 10.3704 21.5558 10.1861 21.5558 9.99996C21.5558 9.81379 21.5188 9.62948 21.4469 9.45774C21.3751 9.286 21.2698 9.13025 21.1372 8.99954C21.0047 8.86884 20.8475 8.76578 20.6747 8.69637C20.502 8.62695 20.3172 8.59256 20.131 8.59519H8.51154C8.26538 8.16882 7.91149 7.81462 7.48534 7.56808C7.05918 7.32153 6.57572 7.1913 6.08339 7.19043ZM15.9167 14.2142C15.4239 14.2146 14.9399 14.3446 14.5132 14.5912C14.0865 14.8378 13.7322 15.1922 13.4858 15.619H1.8691C1.68296 15.6164 1.49814 15.6508 1.3254 15.7202C1.15266 15.7896 0.995438 15.8926 0.862871 16.0234C0.730304 16.1541 0.625037 16.3098 0.553186 16.4815C0.481336 16.6533 0.444336 16.8376 0.444336 17.0238C0.444336 17.2099 0.481336 17.3942 0.553186 17.566C0.625037 17.7377 0.730304 17.8935 0.862871 18.0242C0.995438 18.1549 1.15266 18.2579 1.3254 18.3274C1.49814 18.3968 1.68296 18.4312 1.8691 18.4285H13.4886C13.7347 18.8549 14.0886 19.2091 14.5148 19.4556C14.9409 19.7022 15.4244 19.8324 15.9167 19.8333C16.4095 19.8329 16.8935 19.7029 17.3202 19.4563C17.7469 19.2098 18.1012 18.8553 18.3476 18.4285H20.131C20.3172 18.4312 20.502 18.3968 20.6747 18.3274C20.8475 18.2579 21.0047 18.1549 21.1372 18.0242C21.2698 17.8935 21.3751 17.7377 21.4469 17.566C21.5188 17.3942 21.5558 17.2099 21.5558 17.0238C21.5558 16.8376 21.5188 16.6533 21.4469 16.4815C21.3751 16.3098 21.2698 16.1541 21.1372 16.0234C21.0047 15.8926 20.8475 15.7896 20.6747 15.7202C20.502 15.6508 20.3172 15.6164 20.131 15.619H18.3449C18.0987 15.1926 17.7448 14.8384 17.3187 14.5919C16.8925 14.3453 16.4091 14.2151 15.9167 14.2142Z" fill="black"/>
</svg>
