<svg width="20" height="21" viewBox="0 0 20 21" fill="none" xmlns="http://www.w3.org/2000/svg">
<path d="M9.99999 2.16666C5.40749 2.16666 1.66666 5.90749 1.66666 10.5C1.66666 15.0925 5.40749 18.8333 9.99999 18.8333C14.5925 18.8333 18.3333 15.0925 18.3333 10.5C18.3333 5.90749 14.5925 2.16666 9.99999 2.16666ZM9.99999 3.83332C10.2069 3.83332 10.4337 3.91802 10.7226 4.19302C11.0116 4.46803 11.3254 4.92906 11.595 5.5358C11.8003 5.99767 11.9683 6.56139 12.1126 7.16666H7.88736C8.03173 6.56139 8.19966 5.99767 8.40494 5.5358C8.6746 4.92906 8.98837 4.46803 9.27733 4.19302C9.5663 3.91802 9.79308 3.83332 9.99999 3.83332ZM7.04263 4.52831C6.98836 4.6374 6.93236 4.74428 6.8815 4.85871C6.58007 5.53693 6.3461 6.32183 6.17024 7.16666H4.22688C4.88224 6.03097 5.86239 5.11196 7.04263 4.52831ZM12.9573 4.52831C14.1376 5.11196 15.1177 6.03097 15.7731 7.16666H13.8297C13.6539 6.32183 13.4199 5.53693 13.1185 4.85871C13.0676 4.74428 13.0116 4.6374 12.9573 4.52831ZM3.55142 8.83332H5.9147C5.86355 9.37239 5.83332 9.92802 5.83332 10.5C5.83332 11.072 5.86355 11.6276 5.9147 12.1667H3.55142C3.41462 11.6331 3.33332 11.0772 3.33332 10.5C3.33332 9.9228 3.41462 9.36683 3.55142 8.83332ZM7.59765 8.83332H12.4023C12.4603 9.36881 12.5 9.92218 12.5 10.5C12.5 11.0778 12.4603 11.6312 12.4023 12.1667H7.59765C7.53964 11.6312 7.49999 11.0778 7.49999 10.5C7.49999 9.92218 7.53964 9.36881 7.59765 8.83332ZM14.0853 8.83332H16.4486C16.5854 9.36683 16.6667 9.9228 16.6667 10.5C16.6667 11.0772 16.5854 11.6331 16.4486 12.1667H14.0853C14.1364 11.6276 14.1667 11.072 14.1667 10.5C14.1667 9.92802 14.1364 9.37239 14.0853 8.83332ZM4.22688 13.8333H6.17024C6.3461 14.6781 6.58007 15.463 6.8815 16.1413C6.93236 16.2557 6.98836 16.3626 7.04263 16.4717C5.86239 15.888 4.88224 14.969 4.22688 13.8333ZM7.88736 13.8333H12.1126C11.9683 14.4386 11.8003 15.0023 11.595 15.4642C11.3254 16.0709 11.0116 16.532 10.7226 16.807C10.4337 17.082 10.2069 17.1667 9.99999 17.1667C9.79308 17.1667 9.5663 17.082 9.27733 16.807C8.98836 16.532 8.6746 16.0709 8.40494 15.4642C8.19966 15.0023 8.03173 14.4386 7.88736 13.8333ZM13.8297 13.8333H15.7731C15.1177 14.969 14.1376 15.888 12.9573 16.4717C13.0116 16.3626 13.0676 16.2557 13.1185 16.1413C13.4199 15.463 13.6539 14.6781 13.8297 13.8333Z" fill="#FCFCFC"/>
</svg>
