<svg width="20" height="30" viewBox="0 0 20 30" fill="none" xmlns="http://www.w3.org/2000/svg">
<path opacity="0.2" d="M10 0C4.48731 0 0 4.48731 0 10C0 18.8208 9.14307 29.3408 9.53125 29.7852C9.65088 29.9219 9.81934 30 10 30C10.1929 29.9878 10.3491 29.9219 10.4688 29.7852C10.8569 29.3335 20 18.6328 20 10C20 4.48731 15.5127 0 10 0ZM10 6.875C12.0703 6.875 13.75 8.55469 13.75 10.625C13.75 12.6953 12.0703 14.375 10 14.375C7.92969 14.375 6.25 12.6953 6.25 10.625C6.25 8.55469 7.92969 6.875 10 6.875Z" fill="#191919"/>
</svg>
